<svg height="110" width="110"><path fill="#fffefe" d="M52.62 58.594l-2.958 4.104.148.148 4.23-2.884 16.337-7.538 4.612 4.638L45.595 69.43l-3.134-3.152L55.06 37.023l5.086 5.114z"></path><path fill="#fee000" d="M26.422 73.098l5.25-5.19-5.322-5.353 36.24-35.814 5.321 5.352 5.368-5.305L52.788 6.182l-5.367 5.306 5.322 5.352-36.239 35.814-5.322-5.351-5.251 5.189z"></path><path fill="#fffefe" d="M70.303 61.662l-8.725 8.623 6.454 6.49L57.43 87.254l-.04-.041-3.428 3.388-21.288-21.408-5.298 5.236 31.578 31.753 46.978-46.426-31.233-31.405-5.472 5.409 20.966 21.083-3.251 3.214.015.015-10.199 10.081z"></path></svg>